{
  "title": "The Last Samurai[2003]DvDrip AC3[Eng]",
  "uid": 5811836,
  "size": 737866262,
  "categoryP": "video",
  "categoryS": "movies",
  "magnet": "?xt=urn:btih:11047cb2555ea3fdfc7765c818ae94b61dd3334c&amp;dn=The+Last+Samurai%5B2003%5DDvDrip+AC3%5BEng%5D&amp;tr=udp%3A%2F%2Ftracker.openbittorrent.com%3A80&amp;tr=udp%3A%2F%2Fopen.demonii.com%3A1337&amp;tr=udp%3A%2F%2Ftracker.coppersurfer.tk%3A6969&amp;tr=udp%3A%2F%2Fexodus.desync.com%3A6969",
  "seeders": 65,
  "leechers": 3,
  "uploader": "kuttunni",
  "files": 3,
  "time": 1283675095,
  "description": "Duration: 02:28:03.80, start: 0.000000, bitrate: 664 kb/s\nStream #0.0: Video: mpeg4, yuv420p, 528x224 [PAR 1:1 DAR 33:14], 25 tbr, 25 tbn, 25 tbc\nStream #0.1: Audio: mp3, 48000 Hz, 2 channels, s16, 128 kb/s",
  "parsed": {
    "xt": "urn:btih:11047cb2555ea3fdfc7765c818ae94b61dd3334c",
    "dn": "The Last Samurai[2003]DvDrip AC3[Eng]",
    "tr": [
      "udp://exodus.desync.com:6969",
      "udp://open.demonii.com:1337",
      "udp://tracker.coppersurfer.tk:6969",
      "udp://tracker.openbittorrent.com:80"
    ],
    "infoHash": "11047cb2555ea3fdfc7765c818ae94b61dd3334c",
    "infoHashBuffer": {
      "type": "Buffer",
      "data": [
        17,
        4,
        124,
        178,
        85,
        94,
        163,
        253,
        252,
        119,
        101,
        200,
        24,
        174,
        148,
        182,
        29,
        211,
        51,
        76
      ]
    },
    "name": "The Last Samurai[2003]DvDrip AC3[Eng]",
    "announce": [
      "udp://exodus.desync.com:6969",
      "udp://open.demonii.com:1337",
      "udp://tracker.coppersurfer.tk:6969",
      "udp://tracker.openbittorrent.com:80"
    ],
    "urlList": []
  },
  "previous": 62,
  "peers": 7,
  "last_updated": "2016-12-26T16:35:11.453Z"
}